<?xml version="1.0" standalone="no"?>
<!DOCTYPE svg PUBLIC "-//W3C//DTD SVG 20010904//EN"
 "http://www.w3.org/TR/2001/REC-SVG-20010904/DTD/svg10.dtd">
<svg version="1.0" xmlns="http://www.w3.org/2000/svg"
 width="300.000000pt" height="300.000000pt" viewBox="0 0 300.000000 300.000000"
 preserveAspectRatio="xMidYMid meet">
<metadata>
Created by potrace 1.14, written by Peter Selinger 2001-2017
</metadata>
<g transform="translate(0.000000,300.000000) scale(0.100000,-0.100000)"
fill="#000000" stroke="none">
<path d="M1365 2869 c-173 -22 -260 -44 -392 -99 -521 -217 -857 -728 -847
-1288 1 -65 5 -135 9 -157 3 -22 8 -53 10 -70 5 -40 9 -55 40 -155 14 -47 27
-91 27 -97 1 -7 6 -13 11 -13 6 0 8 -3 4 -6 -3 -3 12 -40 33 -82 21 -42 36
-81 33 -86 -3 -6 -2 -8 2 -3 5 4 20 -12 34 -35 27 -48 96 -143 123 -172 9 -10
14 -24 11 -30 -3 -6 -2 -8 2 -4 10 10 96 -73 89 -84 -3 -5 -1 -7 4 -6 5 2 23
-9 39 -23 17 -15 42 -35 57 -44 14 -9 23 -21 20 -26 -3 -5 -2 -8 3 -7 14 5 85
-41 79 -51 -4 -5 3 -7 14 -4 11 3 20 1 20 -3 0 -5 15 -15 33 -23 17 -8 34 -17
37 -21 21 -26 266 -112 385 -135 42 -8 121 -18 138 -17 11 1 15 -4 11 -11 -5
-8 -3 -8 7 1 17 16 32 16 23 0 -5 -9 -2 -9 9 1 9 7 18 11 18 7 1 -3 2 -10 3
-15 0 -5 5 -13 9 -18 5 -4 8 -3 7 2 -7 31 24 45 42 20 5 -6 12 -5 19 2 9 9 16
10 26 2 7 -7 13 -7 13 -2 0 9 44 14 147 17 22 0 39 5 36 10 -3 5 8 7 25 4 17
-2 29 -1 26 4 -3 4 1 8 8 8 7 0 49 11 92 25 43 14 82 23 86 20 4 -3 10 1 13 9
3 7 17 16 31 20 14 3 38 11 53 17 15 6 30 10 32 9 2 -1 7 2 10 7 12 18 81 54
91 48 6 -4 9 -1 8 7 -2 7 5 12 14 12 10 -1 16 2 15 6 -3 11 133 111 144 105 5
-3 6 1 3 9 -3 9 -2 16 4 16 26 0 153 143 243 275 57 82 146 269 165 345 2 8 8
33 14 55 31 118 43 214 43 350 0 142 -7 208 -30 300 -8 33 -17 70 -19 83 -15
78 -131 328 -186 397 -4 5 -35 45 -68 87 -178 226 -449 400 -735 472 -118 30
-185 38 -313 40 -59 1 -129 -1 -157 -5z"/>
<path d="M476 527 c3 -10 9 -15 12 -12 3 3 0 11 -7 18 -10 9 -11 8 -5 -6z"/>
<path d="M775 280 c-3 -5 -1 -10 4 -10 6 0 11 5 11 10 0 6 -2 10 -4 10 -3 0
-8 -4 -11 -10z"/>
<path d="M2056 218 c3 -5 10 -6 15 -3 13 9 11 12 -6 12 -8 0 -12 -4 -9 -9z"/>
</g>
</svg>
